<svg xmlns="http://www.w3.org/2000/svg">
    <defs>
        <symbol xmlns="http://www.w3.org/2000/svg" id="icon-arrow-up-right" viewBox="0 0 24 24">
            <g>
                <path d="M19,16a1,1,0,0,1-1-1V6H9A1,1,0,0,1,9,4H19a1,1,0,0,1,1,1V15A1,1,0,0,1,19,16Z" fill="currentColor" />
                <path d="M6,19a1,1,0,0,1-.707-1.707l13-13a1,1,0,1,1,1.414,1.414l-13,13A1,1,0,0,1,6,19Z" fill="currentColor" opacity="0.4" />
            </g>
        </symbol>
        <symbol xmlns="http://www.w3.org/2000/svg" viewBox="0 0 29.435546875 32.8125" id="icon-square-stack-up" fill="currentColor">
            <path d="M14.7108 19.264C15.3948 19.264 16.0508 18.99 16.9528 18.457L27.3578 12.455C28.6838 11.676 29.4218 10.883 29.4218 9.639C29.4218 8.395 28.6838 7.588 27.3578 6.809L16.9528 0.807C16.0508 0.273 15.3948 0 14.7108 0C14.0278 0 13.3708 0.273 12.4828 0.807L2.0778 6.809C0.7388 7.588 -0.0002 8.395 -0.0002 9.639C-0.0002 10.883 0.7388 11.676 2.0778 12.455L12.4828 18.457C13.3708 18.99 14.0278 19.264 14.7108 19.264ZM14.7108 26.168C15.3808 26.168 15.9958 25.867 16.8708 25.361L27.6038 19.1C28.7518 18.43 29.4358 17.637 29.4358 16.502C29.4358 15.531 28.9158 14.793 28.1508 14.246L16.2968 21.164C15.6548 21.547 15.2028 21.766 14.7108 21.766C14.2328 21.766 13.7678 21.547 13.1248 21.164L1.2718 14.246C0.5058 14.793 -0.0002 15.531 -0.0002 16.502C-0.0002 17.637 0.6838 18.43 1.8318 19.1L12.5508 25.361C13.4258 25.867 14.0408 26.168 14.7108 26.168ZM14.7108 32.813C15.3808 32.813 15.9958 32.512 16.8708 32.006L27.6038 25.744C28.7388 25.074 29.4358 24.281 29.4358 23.146C29.4358 22.176 28.9158 21.438 28.1508 20.891L16.2968 27.809C15.6548 28.191 15.2028 28.41 14.7108 28.41C14.2328 28.41 13.7678 28.191 13.1248 27.809L1.2718 20.891C0.5058 21.438 -0.0002 22.176 -0.0002 23.146C-0.0002 24.281 0.6838 25.074 1.8318 25.744L12.5508 32.006C13.4258 32.512 14.0408 32.813 14.7108 32.813Z" fill="currentColor" />
        </symbol>
        <symbol xmlns="http://www.w3.org/2000/svg" viewBox="0 0 27.630859375 30.625" id="icon-pin-circle">
            <path d="              M8.4217 5.4273C8.4217 7.9163 10.0897 10.0213 12.3867 10.6503V19.2633C12.3867 22.9823 13.2207 25.2793 13.8227 25.2793C14.4097 25.2793 15.2307 22.9963 15.2307 19.2633V10.6503C17.5407 10.0353 19.2227 7.9163 19.2227 5.4273C19.2227 2.4473 16.8167 0.0003 13.8227 0.0003C10.8147 0.0003 8.4217 2.4473 8.4217 5.4273ZM12.2907 5.7283C11.3067 5.7283 10.4317 4.8673 10.4317 3.8693C10.4317 2.8713 11.3067 2.0233 12.2907 2.0233C13.3027 2.0233 14.1367 2.8713 14.1367 3.8693C14.1367 4.8673 13.3027 5.7283 12.2907 5.7283ZM13.8087 30.6253C22.4767 30.6253 27.6307 27.7133 27.6307 24.3773C27.6307 20.6993 21.9847 18.3473 17.5547 18.1703V20.5763C20.5627 20.6993 24.5277 22.1213 24.5277 24.1033C24.5277 26.4553 20.0157 28.0823 13.8087 28.0823C7.6017 28.0823 3.1037 26.4683 3.1037 24.1033C3.1037 22.1213 7.0687 20.6993 10.0627 20.5763V18.1703C5.6467 18.3473 -0.0003 20.6993 -0.0003 24.3773C-0.0003 27.7133 5.1547 30.6253 13.8087 30.6253Z" fill="currentColor" />
        </symbol>
        <symbol xmlns="http://www.w3.org/2000/svg" viewBox="0 0 72 72" id="icon-linkedin">
            <g fill="none" fill-rule="evenodd">
                <path d="M8,72 L64,72 C68.418278,72 72,68.418278 72,64 L72,8 C72,3.581722 68.418278,-8.11624501e-16 64,0 L8,0 C3.581722,8.11624501e-16 -5.41083001e-16,3.581722 0,8 L0,64 C5.41083001e-16,68.418278 3.581722,72 8,72 Z" fill="#007EBB"/>
                <path d="M62,62 L51.315625,62 L51.315625,43.8021149 C51.315625,38.8127542 49.4197917,36.0245323 45.4707031,36.0245323 C41.1746094,36.0245323 38.9300781,38.9261103 38.9300781,43.8021149 L38.9300781,62 L28.6333333,62 L28.6333333,27.3333333 L38.9300781,27.3333333 L38.9300781,32.0029283 C38.9300781,32.0029283 42.0260417,26.2742151 49.3825521,26.2742151 C56.7356771,26.2742151 62,30.7644705 62,40.051212 L62,62 Z M16.349349,22.7940133 C12.8420573,22.7940133 10,19.9296567 10,16.3970067 C10,12.8643566 12.8420573,10 16.349349,10 C19.8566406,10 22.6970052,12.8643566 22.6970052,16.3970067 C22.6970052,19.9296567 19.8566406,22.7940133 16.349349,22.7940133 Z M11.0325521,62 L21.769401,62 L21.769401,27.3333333 L11.0325521,27.3333333 L11.0325521,62 Z" fill="#FFF"/>
            </g>
        </symbol>
        <symbol xmlns="http://www.w3.org/2000/svg" viewBox="0 0 1024 1024" id="icon-github">
            <path fill-rule="evenodd" clip-rule="evenodd" d="M8 0C3.58 0 0 3.58 0 8C0 11.54 2.29 14.53 5.47 15.59C5.87 15.66 6.02 15.42 6.02 15.21C6.02 15.02 6.01 14.39 6.01 13.72C4 14.09 3.48 13.23 3.32 12.78C3.23 12.55 2.84 11.84 2.5 11.65C2.22 11.5 1.82 11.13 2.49 11.12C3.12 11.11 3.57 11.7 3.72 11.94C4.44 13.15 5.59 12.81 6.05 12.6C6.12 12.08 6.33 11.73 6.56 11.53C4.78 11.33 2.92 10.64 2.92 7.58C2.92 6.71 3.23 5.99 3.74 5.43C3.66 5.23 3.38 4.41 3.82 3.31C3.82 3.31 4.49 3.1 6.02 4.13C6.66 3.95 7.34 3.86 8.02 3.86C8.7 3.86 9.38 3.95 10.02 4.13C11.55 3.09 12.22 3.31 12.22 3.31C12.66 4.41 12.38 5.23 12.3 5.43C12.81 5.99 13.12 6.7 13.12 7.58C13.12 10.65 11.25 11.33 9.47 11.53C9.76 11.78 10.01 12.26 10.01 13.01C10.01 14.08 10 14.94 10 15.21C10 15.42 10.15 15.67 10.55 15.59C13.71 14.53 16 11.53 16 8C16 3.58 12.42 0 8 0Z" transform="scale(64)" fill="#1B1F23"/>
        </symbol>

    </defs>
</svg>