<?xml version="1.0" encoding="utf-8"?>
<!-- Generator: Adobe Illustrator 26.5.0, SVG Export Plug-In . SVG Version: 6.00 Build 0)  -->
<svg version="1.1" id="Layer_1" xmlns="http://www.w3.org/2000/svg" xmlns:xlink="http://www.w3.org/1999/xlink" x="0px" y="0px"
	 viewBox="0 0 512 512" style="enable-background:new 0 0 512 512;" xml:space="preserve">
<style type="text/css">
	.st0{fill:#D0021B;}
</style>
<g id="XMLID_1_">
	<path id="XMLID_2_" d="M156.12,301.71c25.67,0,46.43-20.76,46.43-46.43c0-25.67-20.76-46.43-46.43-46.43s-46.43,20.76-46.43,46.43
		C109.69,280.95,130.45,301.71,156.12,301.71z M46.43,394.57c25.67,0,46.43-20.76,46.43-46.43c0-25.67-20.76-46.43-46.43-46.43
		S0,322.47,0,348.14S20.76,394.57,46.43,394.57z M465.57,394.57c25.67,0,46.43-20.76,46.43-46.43c0-25.67-20.76-46.43-46.43-46.43
		c-25.67,0-46.43,20.76-46.43,46.43S439.9,394.57,465.57,394.57z"/>
	<path id="XMLID_6_" class="st0" d="M313.09,257.24c-1.54-15.57-2.24-28.48-14.17-37.45c-15.01-11.5-32.12-4.07-53.02-11.64
		c-20.62-5.05-35.91-23.29-35.91-45.17c0-25.67,21.18-46.43,47.27-46.43c19.36,0,35.91,11.36,43.2,27.77
		c11.22,21.32,3.93,42.92,17.96,53.87c16.69,12.91,39.14,3.51,64.25,15.71c8,3.65,14.87,9.54,19.64,16.83
		c4.77,7.29,7.57,15.99,7.57,25.25c0,21.88-15.29,40.12-35.91,45.17c-21.04,7.57-38.01,0.14-53.02,11.64
		c-16.97,12.91-7.86,34.51-21.6,57.37c-7.86,15.01-23.71,25.39-42.08,25.39c-26.09,0-47.27-20.76-47.27-46.43
		c0-18.66,11.22-34.79,27.21-42.08c25.11-12.2,47.55-2.81,64.25-15.71C311.13,283.61,313.09,272.11,313.09,257.24z"/>
</g>
</svg>
